# This file uses centimeters as units for non-parametric coordinates.

mtllib ABlock4Cylinder.mtl
g default
v 0.000000 -100.000000 0.000000
v 0.000000 100.000000 0.000000
v 95.105713 -92.593102 -30.901718
v 93.016739 -97.830566 -30.222973
v 87.973518 -100.000000 -28.584337
v 80.901756 -92.593102 -58.778561
v 79.124771 -97.830566 -57.487507
v 74.834755 -100.000000 -54.370625
v 58.778561 -92.593102 -80.901749
v 57.487507 -97.830566 -79.124763
v 54.370625 -100.000000 -74.834747
v 30.901714 -92.593102 -95.105705
v 30.222967 -97.830566 -93.016739
v 28.584328 -100.000000 -87.973518
v 0.000000 -92.593102 -100.000046
v 0.000000 -97.830566 -97.803574
v 0.000001 -100.000000 -92.500816
v -30.901714 -92.593102 -95.105698
v -30.222967 -97.830566 -93.016731
v -28.584326 -100.000000 -87.973511
v -58.778549 -92.593102 -80.901733
v -57.487495 -97.830566 -79.124748
v -54.370613 -100.000000 -74.834732
v -80.901726 -92.593102 -58.778542
v -79.124741 -97.830566 -57.487488
v -74.834724 -100.000000 -54.370609
v -95.105675 -92.593102 -30.901707
v -93.016708 -97.830566 -30.222960
v -87.973488 -100.000000 -28.584318
v -100.000023 -92.593102 0.000000
v -97.803551 -97.830566 0.000000
v -92.500793 -100.000000 0.000000
v -95.105675 -92.593102 30.901707
v -93.016708 -97.830566 30.222960
v -87.973488 -100.000000 28.584318
v -80.901718 -92.593102 58.778538
v -79.124733 -97.830566 57.487484
v -74.834717 -100.000000 54.370602
v -58.778538 -92.593102 80.901711
v -57.487484 -97.830566 79.124725
v -54.370602 -100.000000 74.834709
v -30.901707 -92.593102 95.105667
v -30.222960 -97.830566 93.016701
v -28.584318 -100.000000 87.973480
v -0.000003 -92.593102 100.000015
v -0.000003 -97.830566 97.803543
v -0.000004 -100.000000 92.500786
v 30.901697 -92.593102 95.105659
v 30.222950 -97.830566 93.016693
v 28.584307 -100.000000 87.973473
v 58.778526 -92.593102 80.901703
v 57.487473 -97.830566 79.124718
v 54.370590 -100.000000 74.834702
v 80.901703 -92.593102 58.778530
v 79.124718 -97.830566 57.487476
v 74.834702 -100.000000 54.370594
v 95.105652 -92.593102 30.901701
v 93.016685 -97.830566 30.222954
v 87.973465 -100.000000 28.584312
v 100.000000 -92.593102 0.000000
v 97.803528 -97.830566 -0.000002
v 92.500771 -100.000000 -0.000008
v 95.105713 92.593102 -30.901718
v 93.016739 97.830566 -30.222973
v 87.973518 100.000000 -28.584337
v 80.901756 92.593102 -58.778561
v 79.124771 97.830566 -57.487507
v 74.834755 100.000000 -54.370625
v 58.778561 92.593102 -80.901749
v 57.487507 97.830566 -79.124763
v 54.370625 100.000000 -74.834747
v 30.901714 92.593102 -95.105705
v 30.222967 97.830566 -93.016739
v 28.584328 100.000000 -87.973518
v 0.000000 92.593102 -100.000046
v 0.000000 97.830566 -97.803574
v 0.000001 100.000000 -92.500816
v -30.901714 92.593102 -95.105698
v -30.222967 97.830566 -93.016731
v -28.584326 100.000000 -87.973511
v -58.778549 92.593102 -80.901733
v -57.487495 97.830566 -79.124748
v -54.370613 100.000000 -74.834732
v -80.901726 92.593102 -58.778542
v -79.124741 97.830566 -57.487488
v -74.834724 100.000000 -54.370609
v -95.105675 92.593102 -30.901707
v -93.016708 97.830566 -30.222960
v -87.973488 100.000000 -28.584318
v -100.000023 92.593102 0.000000
v -97.803551 97.830566 0.000000
v -92.500793 100.000000 0.000000
v -95.105675 92.593102 30.901707
v -93.016708 97.830566 30.222960
v -87.973488 100.000000 28.584318
v -80.901718 92.593102 58.778538
v -79.124733 97.830566 57.487484
v -74.834717 100.000000 54.370602
v -58.778538 92.593102 80.901711
v -57.487484 97.830566 79.124725
v -54.370602 100.000000 74.834709
v -30.901707 92.593102 95.105667
v -30.222960 97.830566 93.016701
v -28.584318 100.000000 87.973480
v -0.000003 92.593102 100.000015
v -0.000003 97.830566 97.803543
v -0.000004 100.000000 92.500786
v 30.901697 92.593102 95.105659
v 30.222950 97.830566 93.016693
v 28.584307 100.000000 87.973473
v 58.778526 92.593102 80.901703
v 57.487473 97.830566 79.124718
v 54.370590 100.000000 74.834702
v 80.901703 92.593102 58.778530
v 79.124718 97.830566 57.487476
v 74.834702 100.000000 54.370594
v 95.105652 92.593102 30.901701
v 93.016685 97.830566 30.222954
v 87.973465 100.000000 28.584312
v 100.000000 92.593102 0.000000
v 97.803528 97.830566 -0.000002
v 92.500771 100.000000 -0.000008
vt 0.387500 0.326422
vt 0.375000 0.674517
vt 0.400000 0.326422
vt 0.387500 0.674517
vt 0.412500 0.326423
vt 0.400000 0.674517
vt 0.425000 0.326423
vt 0.412500 0.674517
vt 0.437500 0.326422
vt 0.425000 0.674517
vt 0.450000 0.326422
vt 0.437500 0.674517
vt 0.462500 0.326422
vt 0.450000 0.674517
vt 0.475000 0.326423
vt 0.462500 0.674517
vt 0.487500 0.326423
vt 0.475000 0.674517
vt 0.500000 0.326422
vt 0.487500 0.674517
vt 0.512500 0.326423
vt 0.500000 0.674517
vt 0.525000 0.326423
vt 0.512500 0.674517
vt 0.537500 0.326423
vt 0.525000 0.674517
vt 0.550000 0.326423
vt 0.537500 0.674517
vt 0.562500 0.326423
vt 0.550000 0.674517
vt 0.575000 0.326423
vt 0.562500 0.674517
vt 0.587500 0.326423
vt 0.575000 0.674517
vt 0.600000 0.326423
vt 0.587500 0.674517
vt 0.612500 0.326422
vt 0.600000 0.674517
vt 0.625000 0.326423
vt 0.612500 0.674517
vt 0.637459 0.111118
vt 0.616929 0.070827
vt 0.584954 0.038852
vt 0.544663 0.018323
vt 0.500000 0.011249
vt 0.455337 0.018323
vt 0.415046 0.038852
vt 0.383071 0.070827
vt 0.362541 0.111118
vt 0.355467 0.155781
vt 0.362541 0.200444
vt 0.383071 0.240735
vt 0.415046 0.272711
vt 0.455337 0.293240
vt 0.500000 0.300314
vt 0.544663 0.293240
vt 0.584954 0.272711
vt 0.616929 0.240735
vt 0.637459 0.200444
vt 0.500000 0.150000
vt 0.644532 0.155781
vt 0.616929 0.928235
vt 0.584954 0.960211
vt 0.544663 0.980740
vt 0.500000 0.987814
vt 0.455337 0.980740
vt 0.415046 0.960211
vt 0.383071 0.928235
vt 0.362541 0.887944
vt 0.355467 0.843281
vt 0.362541 0.798618
vt 0.383071 0.758327
vt 0.415046 0.726352
vt 0.455337 0.705823
vt 0.500000 0.698749
vt 0.544663 0.705823
vt 0.584954 0.726352
vt 0.616929 0.758327
vt 0.637459 0.798618
vt 0.644532 0.843281
vt 0.637458 0.887944
vt 0.500000 0.837500
vt 0.375000 0.326422
vt 0.625000 0.674517
vt 0.625000 0.312500
vt 0.648603 0.107966
vt 0.375000 0.312500
vt 0.626409 0.064408
vt 0.387500 0.312500
vt 0.591842 0.029841
vt 0.400000 0.312500
vt 0.548284 0.007647
vt 0.412500 0.312500
vt 0.500000 -0.000000
vt 0.425000 0.312500
vt 0.451716 0.007647
vt 0.437500 0.312500
vt 0.408159 0.029841
vt 0.450000 0.312500
vt 0.373591 0.064409
vt 0.462500 0.312500
vt 0.351397 0.107966
vt 0.475000 0.312500
vt 0.343750 0.156250
vt 0.487500 0.312500
vt 0.351397 0.204534
vt 0.500000 0.312500
vt 0.373591 0.248091
vt 0.512500 0.312500
vt 0.408159 0.282659
vt 0.525000 0.312500
vt 0.451716 0.304853
vt 0.537500 0.312500
vt 0.500000 0.312500
vt 0.550000 0.312500
vt 0.548284 0.304853
vt 0.562500 0.312500
vt 0.591841 0.282659
vt 0.575000 0.312500
vt 0.626409 0.248091
vt 0.587500 0.312500
vt 0.648603 0.204534
vt 0.600000 0.312500
vt 0.656250 0.156250
vt 0.612500 0.312500
vt 0.375000 0.688440
vt 0.648603 0.892034
vt 0.625000 0.688440
vt 0.387500 0.688440
vt 0.626409 0.935591
vt 0.400000 0.688440
vt 0.591841 0.970159
vt 0.412500 0.688440
vt 0.548284 0.992353
vt 0.425000 0.688440
vt 0.500000 1.000000
vt 0.437500 0.688440
vt 0.451716 0.992353
vt 0.450000 0.688440
vt 0.408159 0.970159
vt 0.462500 0.688440
vt 0.373591 0.935591
vt 0.475000 0.688440
vt 0.351397 0.892034
vt 0.487500 0.688440
vt 0.343750 0.843750
vt 0.500000 0.688440
vt 0.351397 0.795466
vt 0.512500 0.688440
vt 0.373591 0.751909
vt 0.525000 0.688440
vt 0.408159 0.717341
vt 0.537500 0.688440
vt 0.451716 0.695147
vt 0.550000 0.688440
vt 0.500000 0.687500
vt 0.562500 0.688440
vt 0.548284 0.695147
vt 0.575000 0.688440
vt 0.591842 0.717341
vt 0.587500 0.688440
vt 0.626409 0.751908
vt 0.600000 0.688440
vt 0.648603 0.795466
vt 0.656250 0.843750
vt 0.612500 0.688440
vn 0.950999 -0.010983 -0.308997
vn 0.808968 -0.010983 -0.587750
vn 0.808968 0.010983 -0.587750
vn 0.950999 0.010983 -0.308997
vn 0.587750 -0.010983 -0.808968
vn 0.587750 0.010982 -0.808968
vn 0.308998 -0.010982 -0.950999
vn 0.308998 0.010982 -0.950999
vn 0.000000 -0.010982 -0.999940
vn 0.000000 0.010982 -0.999940
vn -0.308998 -0.010982 -0.950999
vn -0.308998 0.010982 -0.950999
vn -0.587750 -0.010982 -0.808968
vn -0.587750 0.010982 -0.808968
vn -0.808968 -0.010982 -0.587750
vn -0.808968 0.010982 -0.587750
vn -0.950999 -0.010983 -0.308998
vn -0.950999 0.010983 -0.308998
vn -0.999940 -0.010983 0.000000
vn -0.999940 0.010983 0.000000
vn -0.950999 -0.010982 0.308998
vn -0.950999 0.010982 0.308998
vn -0.808968 -0.010982 0.587750
vn -0.808968 0.010982 0.587750
vn -0.587750 -0.010983 0.808968
vn -0.587750 0.010983 0.808968
vn -0.308998 -0.010982 0.950999
vn -0.308998 0.010982 0.950999
vn 0.000000 -0.010982 0.999940
vn 0.000000 0.010982 0.999940
vn 0.308998 -0.010982 0.950999
vn 0.308998 0.010982 0.950999
vn 0.587750 -0.010983 0.808968
vn 0.587750 0.010983 0.808968
vn 0.808968 -0.010983 0.587750
vn 0.808968 0.010983 0.587750
vn 0.950999 -0.010983 0.308998
vn 0.950999 0.010983 0.308998
vn 0.999940 -0.010983 0.000001
vn 0.999940 0.010983 0.000001
vn 0.041396 -0.998690 -0.030076
vn 0.048664 -0.998690 -0.015812
vn 0.000000 -1.000000 0.000000
vn 0.030076 -0.998690 -0.041396
vn 0.015812 -0.998690 -0.048664
vn -0.000000 -0.998690 -0.051169
vn -0.015812 -0.998690 -0.048664
vn -0.030076 -0.998690 -0.041396
vn -0.041396 -0.998690 -0.030076
vn -0.048664 -0.998690 -0.015812
vn -0.051169 -0.998690 -0.000000
vn -0.048664 -0.998690 0.015812
vn -0.041396 -0.998690 0.030076
vn -0.030076 -0.998690 0.041396
vn -0.015812 -0.998690 0.048664
vn -0.000000 -0.998690 0.051169
vn 0.015812 -0.998690 0.048664
vn 0.030076 -0.998690 0.041396
vn 0.041396 -0.998690 0.030076
vn 0.048664 -0.998690 0.015812
vn 0.051169 -0.998690 0.000000
vn 0.048664 0.998690 -0.015812
vn 0.041396 0.998690 -0.030076
vn 0.000000 1.000000 -0.000000
vn 0.030076 0.998690 -0.041396
vn 0.015812 0.998690 -0.048664
vn -0.000000 0.998690 -0.051169
vn -0.015812 0.998690 -0.048664
vn -0.030076 0.998690 -0.041396
vn -0.041396 0.998690 -0.030076
vn -0.048664 0.998690 -0.015812
vn -0.051169 0.998690 0.000000
vn -0.048664 0.998690 0.015812
vn -0.041396 0.998690 0.030076
vn -0.030076 0.998690 0.041396
vn -0.015812 0.998690 0.048664
vn -0.000000 0.998690 0.051169
vn 0.015812 0.998690 0.048664
vn 0.030076 0.998690 0.041396
vn 0.041396 0.998690 0.030076
vn 0.048664 0.998690 0.015812
vn 0.051169 0.998690 0.000000
vn 0.877052 -0.386744 -0.284971
vn 0.746065 -0.386744 -0.542048
vn 0.360119 -0.925539 -0.117009
vn 0.306335 -0.925539 -0.222565
vn 0.542048 -0.386744 -0.746065
vn 0.222566 -0.925539 -0.306335
vn 0.284971 -0.386744 -0.877052
vn 0.117010 -0.925539 -0.360119
vn 0.000000 -0.386744 -0.922187
vn -0.000000 -0.925539 -0.378652
vn -0.284972 -0.386744 -0.877052
vn -0.117010 -0.925539 -0.360119
vn -0.542049 -0.386744 -0.746065
vn -0.222566 -0.925539 -0.306335
vn -0.746066 -0.386744 -0.542047
vn -0.306335 -0.925540 -0.222565
vn -0.877052 -0.386744 -0.284971
vn -0.360119 -0.925539 -0.117010
vn -0.922187 -0.386744 0.000000
vn -0.378651 -0.925539 -0.000000
vn -0.877052 -0.386744 0.284971
vn -0.360119 -0.925540 0.117009
vn -0.746065 -0.386744 0.542048
vn -0.306335 -0.925539 0.222565
vn -0.542048 -0.386744 0.746065
vn -0.222566 -0.925539 0.306336
vn -0.284971 -0.386744 0.877052
vn -0.117010 -0.925539 0.360119
vn 0.000000 -0.386744 0.922187
vn -0.000000 -0.925539 0.378652
vn 0.284972 -0.386744 0.877052
vn 0.117010 -0.925539 0.360119
vn 0.542048 -0.386744 0.746065
vn 0.222566 -0.925539 0.306336
vn 0.746065 -0.386745 0.542047
vn 0.306336 -0.925539 0.222566
vn 0.877052 -0.386745 0.284971
vn 0.360119 -0.925539 0.117010
vn 0.922187 -0.386744 0.000001
vn 0.378652 -0.925539 0.000000
vn 0.877052 0.386744 -0.284971
vn 0.922187 0.386744 0.000001
vn 0.360119 0.925539 -0.117009
vn 0.378652 0.925539 0.000000
vn 0.306335 0.925539 -0.222565
vn 0.746065 0.386744 -0.542048
vn 0.222566 0.925539 -0.306335
vn 0.542048 0.386744 -0.746065
vn 0.117010 0.925539 -0.360119
vn 0.284971 0.386744 -0.877052
vn -0.000000 0.925539 -0.378652
vn 0.000000 0.386744 -0.922187
vn -0.117010 0.925539 -0.360119
vn -0.284972 0.386744 -0.877052
vn -0.222566 0.925539 -0.306335
vn -0.542049 0.386744 -0.746065
vn -0.306335 0.925540 -0.222565
vn -0.746065 0.386744 -0.542048
vn -0.360119 0.925539 -0.117009
vn -0.877052 0.386744 -0.284971
vn -0.378651 0.925539 0.000000
vn -0.922187 0.386744 0.000000
vn -0.360119 0.925540 0.117009
vn -0.877052 0.386744 0.284971
vn -0.306335 0.925540 0.222565
vn -0.746065 0.386744 0.542048
vn -0.222566 0.925539 0.306335
vn -0.542048 0.386744 0.746065
vn -0.117010 0.925539 0.360119
vn -0.284971 0.386744 0.877052
vn -0.000000 0.925539 0.378652
vn 0.000000 0.386744 0.922187
vn 0.117010 0.925539 0.360119
vn 0.284972 0.386744 0.877052
vn 0.222566 0.925539 0.306336
vn 0.542048 0.386744 0.746065
vn 0.306336 0.925539 0.222566
vn 0.746065 0.386745 0.542048
vn 0.360119 0.925539 0.117010
vn 0.877052 0.386745 0.284971
s 1
g pCylinder1
usemtl initialShadingGroup
f 3/83/1 6/1/2 66/4/3 63/2/4
f 6/1/2 9/3/5 69/6/6 66/4/3
f 9/3/5 12/5/7 72/8/8 69/6/6
f 12/5/7 15/7/9 75/10/10 72/8/8
f 15/7/9 18/9/11 78/12/12 75/10/10
f 18/9/11 21/11/13 81/14/14 78/12/12
f 21/11/13 24/13/15 84/16/16 81/14/14
f 24/13/15 27/15/17 87/18/18 84/16/16
f 27/15/17 30/17/19 90/20/20 87/18/18
f 30/17/19 33/19/21 93/22/22 90/20/20
f 33/19/21 36/21/23 96/24/24 93/22/22
f 36/21/23 39/23/25 99/26/26 96/24/24
f 39/23/25 42/25/27 102/28/28 99/26/26
f 42/25/27 45/27/29 105/30/30 102/28/28
f 45/27/29 48/29/31 108/32/32 105/30/30
f 48/29/31 51/31/33 111/34/34 108/32/32
f 51/31/33 54/33/35 114/36/36 111/34/34
f 54/33/35 57/35/37 117/38/38 114/36/36
f 57/35/37 60/37/39 120/40/40 117/38/38
f 60/37/39 3/39/1 63/84/4 120/40/40
s 2
f 8/42/41 5/41/42 1/60/43
f 11/43/44 8/42/41 1/60/43
f 14/44/45 11/43/44 1/60/43
f 17/45/46 14/44/45 1/60/43
f 20/46/47 17/45/46 1/60/43
f 23/47/48 20/46/47 1/60/43
f 26/48/49 23/47/48 1/60/43
f 29/49/50 26/48/49 1/60/43
f 32/50/51 29/49/50 1/60/43
f 35/51/52 32/50/51 1/60/43
f 38/52/53 35/51/52 1/60/43
f 41/53/54 38/52/53 1/60/43
f 44/54/55 41/53/54 1/60/43
f 47/55/56 44/54/55 1/60/43
f 50/56/57 47/55/56 1/60/43
f 53/57/58 50/56/57 1/60/43
f 56/58/59 53/57/58 1/60/43
f 59/59/60 56/58/59 1/60/43
f 62/61/61 59/59/60 1/60/43
f 5/41/42 62/61/61 1/60/43
s 3
f 65/81/62 68/62/63 2/82/64
f 68/62/63 71/63/65 2/82/64
f 71/63/65 74/64/66 2/82/64
f 74/64/66 77/65/67 2/82/64
f 77/65/67 80/66/68 2/82/64
f 80/66/68 83/67/69 2/82/64
f 83/67/69 86/68/70 2/82/64
f 86/68/70 89/69/71 2/82/64
f 89/69/71 92/70/72 2/82/64
f 92/70/72 95/71/73 2/82/64
f 95/71/73 98/72/74 2/82/64
f 98/72/74 101/73/75 2/82/64
f 101/73/75 104/74/76 2/82/64
f 104/74/76 107/75/77 2/82/64
f 107/75/77 110/76/78 2/82/64
f 110/76/78 113/77/79 2/82/64
f 113/77/79 116/78/80 2/82/64
f 116/78/80 119/79/81 2/82/64
f 119/79/81 122/80/82 2/82/64
f 122/80/82 65/81/62 2/82/64
s 1
f 3/83/1 4/87/83 7/89/84 6/1/2
s 2
f 4/86/85 5/41/42 8/42/41 7/88/86
s 1
f 6/1/2 7/89/84 10/91/87 9/3/5
s 2
f 7/88/86 8/42/41 11/43/44 10/90/88
s 1
f 9/3/5 10/91/87 13/93/89 12/5/7
s 2
f 10/90/88 11/43/44 14/44/45 13/92/90
s 1
f 12/5/7 13/93/89 16/95/91 15/7/9
s 2
f 13/92/90 14/44/45 17/45/46 16/94/92
s 1
f 15/7/9 16/95/91 19/97/93 18/9/11
s 2
f 16/94/92 17/45/46 20/46/47 19/96/94
s 1
f 18/9/11 19/97/93 22/99/95 21/11/13
s 2
f 19/96/94 20/46/47 23/47/48 22/98/96
s 1
f 21/11/13 22/99/95 25/101/97 24/13/15
s 2
f 22/98/96 23/47/48 26/48/49 25/100/98
s 1
f 24/13/15 25/101/97 28/103/99 27/15/17
s 2
f 25/100/98 26/48/49 29/49/50 28/102/100
s 1
f 27/15/17 28/103/99 31/105/101 30/17/19
s 2
f 28/102/100 29/49/50 32/50/51 31/104/102
s 1
f 30/17/19 31/105/101 34/107/103 33/19/21
s 2
f 31/104/102 32/50/51 35/51/52 34/106/104
s 1
f 33/19/21 34/107/103 37/109/105 36/21/23
s 2
f 34/106/104 35/51/52 38/52/53 37/108/106
s 1
f 36/21/23 37/109/105 40/111/107 39/23/25
s 2
f 37/108/106 38/52/53 41/53/54 40/110/108
s 1
f 39/23/25 40/111/107 43/113/109 42/25/27
s 2
f 40/110/108 41/53/54 44/54/55 43/112/110
s 1
f 42/25/27 43/113/109 46/115/111 45/27/29
s 2
f 43/112/110 44/54/55 47/55/56 46/114/112
s 1
f 45/27/29 46/115/111 49/117/113 48/29/31
s 2
f 46/114/112 47/55/56 50/56/57 49/116/114
s 1
f 48/29/31 49/117/113 52/119/115 51/31/33
s 2
f 49/116/114 50/56/57 53/57/58 52/118/116
s 1
f 51/31/33 52/119/115 55/121/117 54/33/35
s 2
f 52/118/116 53/57/58 56/58/59 55/120/118
s 1
f 54/33/35 55/121/117 58/123/119 57/35/37
s 2
f 55/120/118 56/58/59 59/59/60 58/122/120
s 1
f 57/35/37 58/123/119 61/125/121 60/37/39
s 2
f 58/122/120 59/59/60 62/61/61 61/124/122
f 5/41/42 4/86/85 61/124/122 62/61/61
s 1
f 4/85/83 3/39/1 60/37/39 61/125/121
f 63/84/4 64/128/123 121/166/124 120/40/40
s 3
f 64/127/125 65/81/62 122/80/82 121/165/126
f 65/81/62 64/127/125 67/130/127 68/62/63
s 1
f 64/126/123 63/2/4 66/4/3 67/129/128
s 3
f 68/62/63 67/130/127 70/132/129 71/63/65
s 1
f 67/129/128 66/4/3 69/6/6 70/131/130
s 3
f 71/63/65 70/132/129 73/134/131 74/64/66
s 1
f 70/131/130 69/6/6 72/8/8 73/133/132
s 3
f 74/64/66 73/134/131 76/136/133 77/65/67
s 1
f 73/133/132 72/8/8 75/10/10 76/135/134
s 3
f 77/65/67 76/136/133 79/138/135 80/66/68
s 1
f 76/135/134 75/10/10 78/12/12 79/137/136
s 3
f 80/66/68 79/138/135 82/140/137 83/67/69
s 1
f 79/137/136 78/12/12 81/14/14 82/139/138
s 3
f 83/67/69 82/140/137 85/142/139 86/68/70
s 1
f 82/139/138 81/14/14 84/16/16 85/141/140
s 3
f 86/68/70 85/142/139 88/144/141 89/69/71
s 1
f 85/141/140 84/16/16 87/18/18 88/143/142
s 3
f 89/69/71 88/144/141 91/146/143 92/70/72
s 1
f 88/143/142 87/18/18 90/20/20 91/145/144
s 3
f 92/70/72 91/146/143 94/148/145 95/71/73
s 1
f 91/145/144 90/20/20 93/22/22 94/147/146
s 3
f 95/71/73 94/148/145 97/150/147 98/72/74
s 1
f 94/147/146 93/22/22 96/24/24 97/149/148
s 3
f 98/72/74 97/150/147 100/152/149 101/73/75
s 1
f 97/149/148 96/24/24 99/26/26 100/151/150
s 3
f 101/73/75 100/152/149 103/154/151 104/74/76
s 1
f 100/151/150 99/26/26 102/28/28 103/153/152
s 3
f 104/74/76 103/154/151 106/156/153 107/75/77
s 1
f 103/153/152 102/28/28 105/30/30 106/155/154
s 3
f 107/75/77 106/156/153 109/158/155 110/76/78
s 1
f 106/155/154 105/30/30 108/32/32 109/157/156
s 3
f 110/76/78 109/158/155 112/160/157 113/77/79
s 1
f 109/157/156 108/32/32 111/34/34 112/159/158
s 3
f 113/77/79 112/160/157 115/162/159 116/78/80
s 1
f 112/159/158 111/34/34 114/36/36 115/161/160
s 3
f 116/78/80 115/162/159 118/164/161 119/79/81
s 1
f 115/161/160 114/36/36 117/38/38 118/163/162
s 3
f 119/79/81 118/164/161 121/165/126 122/80/82
s 1
f 118/163/162 117/38/38 120/40/40 121/166/124
