# This file uses centimeters as units for non-parametric coordinates.

mtllib ABlock4CylinderModified.mtl
g default
v 0.000000 -100.000000 0.000000
v 0.000000 100.000000 0.000000
v 95.105713 -92.593102 -30.901718
v 93.016739 -97.830566 -30.222973
v 87.973518 -100.000000 -28.584337
v 80.901756 -92.593102 -58.778561
v 79.124771 -97.830566 -57.487507
v 74.834755 -100.000000 -54.370625
v 58.778561 -92.593102 -80.901749
v 57.487507 -97.830566 -79.124763
v 54.370625 -100.000000 -74.834747
v 30.901714 -92.593102 -95.105705
v 30.222967 -97.830566 -93.016739
v 28.584328 -100.000000 -87.973518
v 0.000000 -92.593102 -100.000046
v 0.000000 -97.830566 -97.803574
v 0.000001 -100.000000 -92.500816
v -30.901714 -92.593102 -95.105698
v -30.222967 -97.830566 -93.016731
v -28.584326 -100.000000 -87.973511
v -58.778549 -92.593102 -80.901733
v -57.487495 -97.830566 -79.124748
v -54.370613 -100.000000 -74.834732
v -80.901726 -92.593102 -58.778542
v -79.124741 -97.830566 -57.487488
v -74.834724 -100.000000 -54.370609
v -95.105675 -92.593102 -30.901707
v -93.016708 -97.830566 -30.222960
v -87.973488 -100.000000 -28.584318
v -100.000023 -92.593102 0.000000
v -97.803551 -97.830566 0.000000
v -92.500793 -100.000000 0.000000
v -95.105675 -92.593102 30.901707
v -93.016708 -97.830566 30.222960
v -87.973488 -100.000000 28.584318
v -80.901718 -92.593102 58.778538
v -79.124733 -97.830566 57.487484
v -74.834717 -100.000000 54.370602
v -58.778538 -92.593102 80.901711
v -57.487484 -97.830566 79.124725
v -54.370602 -100.000000 74.834709
v -30.901707 -92.593102 95.105667
v -30.222960 -97.830566 93.016701
v -28.584318 -100.000000 87.973480
v -0.000003 -92.593102 100.000015
v -0.000003 -97.830566 97.803543
v -0.000004 -100.000000 92.500786
v 30.901697 -92.593102 95.105659
v 30.222950 -97.830566 93.016693
v 28.584307 -100.000000 87.973473
v 58.778526 -92.593102 80.901703
v 57.487473 -97.830566 79.124718
v 54.370590 -100.000000 74.834702
v 80.901703 -92.593102 58.778530
v 79.124718 -97.830566 57.487476
v 74.834702 -100.000000 54.370594
v 95.105652 -92.593102 30.901701
v 93.016685 -97.830566 30.222954
v 87.973465 -100.000000 28.584312
v 100.000000 -92.593102 0.000000
v 97.803528 -97.830566 -0.000002
v 92.500771 -100.000000 -0.000008
v 95.105713 92.593102 -30.901718
v 93.016739 97.830566 -30.222973
v 87.973518 100.000000 -28.584337
v 80.901756 92.593102 -58.778561
v 79.124771 97.830566 -57.487507
v 74.834755 100.000000 -54.370625
v 58.778561 92.593102 -80.901749
v 57.487507 97.830566 -79.124763
v 54.370625 100.000000 -74.834747
v 30.901714 92.593102 -95.105705
v 30.222967 97.830566 -93.016739
v 28.584328 100.000000 -87.973518
v 0.000000 92.593102 -100.000046
v 0.000000 97.830566 -97.803574
v 0.000001 100.000000 -92.500816
v -30.901714 92.593102 -95.105698
v -30.222967 97.830566 -93.016731
v -28.584326 100.000000 -87.973511
v -58.778549 92.593102 -80.901733
v -57.487495 97.830566 -79.124748
v -54.370613 100.000000 -74.834732
v -80.901726 92.593102 -58.778542
v -79.124741 97.830566 -57.487488
v -74.834724 100.000000 -54.370609
v -95.105675 92.593102 -30.901707
v -93.016708 97.830566 -30.222960
v -87.973488 100.000000 -28.584318
v -100.000023 92.593102 0.000000
v -97.803551 97.830566 0.000000
v -92.500793 100.000000 0.000000
v -95.105675 92.593102 30.901707
v -93.016708 97.830566 30.222960
v -87.973488 100.000000 28.584318
v -80.901718 92.593102 58.778538
v -79.124733 97.830566 57.487484
v -74.834717 100.000000 54.370602
v -58.778538 92.593102 80.901711
v -57.487484 97.830566 79.124725
v -54.370602 100.000000 74.834709
v -30.901707 92.593102 95.105667
v -30.222960 97.830566 93.016701
v -28.584318 100.000000 87.973480
v -0.000003 92.593102 100.000015
v -0.000003 97.830566 97.803543
v -0.000004 100.000000 92.500786
v 30.901697 92.593102 95.105659
v 30.222950 97.830566 93.016693
v 28.584307 100.000000 87.973473
v 58.778526 92.593102 80.901703
v 57.487473 97.830566 79.124718
v 54.370590 100.000000 74.834702
v 80.901703 92.593102 58.778530
v 79.124718 97.830566 57.487476
v 74.834702 100.000000 54.370594
v 95.105652 92.593102 30.901701
v 93.016685 97.830566 30.222954
v 87.973465 100.000000 28.584312
v 100.000000 92.593102 0.000000
v 97.803528 97.830566 -0.000002
v 92.500771 100.000000 -0.000008
vt 0.630837 0.048683
vt 0.686209 0.048683
vt 0.686209 0.416516
vt 0.630837 0.416516
vt 0.629489 0.038279
vt 0.683644 0.038279
vt 0.730152 0.048683
vt 0.730152 0.416516
vt 0.629489 0.426920
vt 0.683644 0.426920
vt 0.569457 0.048683
vt 0.569457 0.416516
vt 0.569457 0.038279
vt 0.726622 0.038279
vt 0.726622 0.426920
vt 0.569457 0.426920
vt 0.508077 0.048683
vt 0.508077 0.416516
vt 0.509426 0.038279
vt 0.509426 0.426920
vt 0.452706 0.048683
vt 0.452706 0.416516
vt 0.455270 0.038279
vt 0.455270 0.426920
vt 0.408763 0.048683
vt 0.408763 0.416516
vt 0.412292 0.038279
vt 0.412292 0.426920
vt 0.452706 0.437323
vt 0.508077 0.437323
vt 0.508077 0.805157
vt 0.452706 0.805157
vt 0.455270 0.426920
vt 0.509426 0.426920
vt 0.569457 0.437323
vt 0.569457 0.805157
vt 0.455270 0.815560
vt 0.509426 0.815560
vt 0.408763 0.437323
vt 0.408763 0.805157
vt 0.412292 0.426920
vt 0.569457 0.426920
vt 0.630837 0.437323
vt 0.630837 0.805157
vt 0.569457 0.815560
vt 0.412292 0.815560
vt 0.629489 0.426920
vt 0.686209 0.437323
vt 0.686209 0.805157
vt 0.629489 0.815560
vt 0.683644 0.426920
vt 0.730152 0.437323
vt 0.730152 0.805157
vt 0.683644 0.815560
vt 0.726622 0.426920
vt 0.726622 0.815560
vt 0.363876 0.118546
vt 0.388157 0.166200
vt 0.225578 0.219025
vt 0.397477 0.163172
vt 0.371804 0.112786
vt 0.396524 0.219025
vt 0.326057 0.080727
vt 0.406324 0.219025
vt 0.331818 0.072799
vt 0.388157 0.271851
vt 0.278403 0.056446
vt 0.397477 0.274879
vt 0.281431 0.047126
vt 0.363876 0.319505
vt 0.225578 0.048079
vt 0.371804 0.325265
vt 0.225578 0.038279
vt 0.326057 0.357323
vt 0.172753 0.056446
vt 0.331818 0.365252
vt 0.169724 0.047126
vt 0.278403 0.381605
vt 0.125098 0.080727
vt 0.281431 0.390925
vt 0.119338 0.072799
vt 0.225578 0.389971
vt 0.087280 0.118546
vt 0.225578 0.399771
vt 0.079351 0.112786
vt 0.172753 0.381605
vt 0.062999 0.166200
vt 0.169724 0.390925
vt 0.053678 0.163172
vt 0.125098 0.357323
vt 0.054632 0.219025
vt 0.119338 0.365252
vt 0.044832 0.219025
vt 0.087280 0.319505
vt 0.062999 0.271851
vt 0.079352 0.325265
vt 0.053678 0.274879
vt 0.388157 0.633342
vt 0.363876 0.680996
vt 0.225578 0.580517
vt 0.397477 0.636370
vt 0.371804 0.686756
vt 0.326057 0.718815
vt 0.396524 0.580517
vt 0.406324 0.580517
vt 0.331818 0.726743
vt 0.278403 0.743096
vt 0.388157 0.527691
vt 0.397477 0.524663
vt 0.281431 0.752416
vt 0.225578 0.751463
vt 0.363876 0.480037
vt 0.371804 0.474277
vt 0.225578 0.761262
vt 0.172753 0.743096
vt 0.326057 0.442218
vt 0.331818 0.434290
vt 0.169724 0.752416
vt 0.125098 0.718815
vt 0.278403 0.417937
vt 0.281431 0.408617
vt 0.119338 0.726743
vt 0.087280 0.680996
vt 0.225578 0.409571
vt 0.225578 0.399771
vt 0.079351 0.686756
vt 0.062999 0.633342
vt 0.172753 0.417937
vt 0.169724 0.408617
vt 0.053678 0.636370
vt 0.054632 0.580517
vt 0.125098 0.442218
vt 0.119338 0.434290
vt 0.044832 0.580517
vt 0.062999 0.527691
vt 0.087280 0.480037
vt 0.079352 0.474277
vt 0.053678 0.524663
vt 0.955168 0.400596
vt 0.902127 0.400596
vt 0.902127 0.048245
vt 0.955168 0.048245
vt 0.952711 0.410561
vt 0.900836 0.410561
vt 0.843331 0.400596
vt 0.843331 0.048245
vt 0.952711 0.038279
vt 0.900836 0.038279
vt 0.843331 0.410561
vt 0.784535 0.400596
vt 0.784535 0.048245
vt 0.843331 0.038279
vt 0.785826 0.410561
vt 0.731494 0.400596
vt 0.731494 0.048245
vt 0.785826 0.038279
vt 0.733950 0.410561
vt 0.733950 0.038279
vt 0.731494 0.420526
vt 0.784535 0.420526
vt 0.784535 0.772877
vt 0.731494 0.772877
vt 0.733950 0.410561
vt 0.785826 0.410561
vt 0.843331 0.420526
vt 0.843331 0.772877
vt 0.733950 0.782843
vt 0.785826 0.782843
vt 0.843331 0.410561
vt 0.902127 0.420526
vt 0.902127 0.772877
vt 0.843331 0.782843
vt 0.900836 0.410561
vt 0.955168 0.420526
vt 0.955168 0.772877
vt 0.900836 0.782843
vt 0.952711 0.410561
vt 0.952711 0.782843
vn 0.950999 -0.010983 -0.308997
vn 0.808968 -0.010983 -0.587750
vn 0.808968 0.010983 -0.587750
vn 0.950999 0.010983 -0.308997
vn 0.587750 -0.010983 -0.808968
vn 0.587750 0.010982 -0.808968
vn 0.308998 -0.010982 -0.950999
vn 0.308998 0.010982 -0.950999
vn 0.000000 -0.010982 -0.999940
vn 0.000000 0.010982 -0.999940
vn -0.308998 -0.010982 -0.950999
vn -0.308998 0.010982 -0.950999
vn -0.587750 -0.010982 -0.808968
vn -0.587750 0.010982 -0.808968
vn -0.808968 -0.010982 -0.587750
vn -0.808968 0.010982 -0.587750
vn -0.950999 -0.010983 -0.308998
vn -0.950999 0.010983 -0.308998
vn -0.999940 -0.010983 0.000000
vn -0.999940 0.010983 0.000000
vn -0.950999 -0.010982 0.308998
vn -0.950999 0.010982 0.308998
vn -0.808968 -0.010982 0.587750
vn -0.808968 0.010982 0.587750
vn -0.587750 -0.010983 0.808968
vn -0.587750 0.010983 0.808968
vn -0.308998 -0.010982 0.950999
vn -0.308998 0.010982 0.950999
vn 0.000000 -0.010982 0.999940
vn 0.000000 0.010982 0.999940
vn 0.308998 -0.010982 0.950999
vn 0.308998 0.010982 0.950999
vn 0.587750 -0.010983 0.808968
vn 0.587750 0.010983 0.808968
vn 0.808968 -0.010983 0.587750
vn 0.808968 0.010983 0.587750
vn 0.950999 -0.010983 0.308998
vn 0.950999 0.010983 0.308998
vn 0.999940 -0.010983 0.000001
vn 0.999940 0.010983 0.000001
vn 0.041396 -0.998690 -0.030076
vn 0.048664 -0.998690 -0.015812
vn 0.000000 -1.000000 0.000000
vn 0.030076 -0.998690 -0.041396
vn 0.015812 -0.998690 -0.048664
vn -0.000000 -0.998690 -0.051169
vn -0.015812 -0.998690 -0.048664
vn -0.030076 -0.998690 -0.041396
vn -0.041396 -0.998690 -0.030076
vn -0.048664 -0.998690 -0.015812
vn -0.051169 -0.998690 -0.000000
vn -0.048664 -0.998690 0.015812
vn -0.041396 -0.998690 0.030076
vn -0.030076 -0.998690 0.041396
vn -0.015812 -0.998690 0.048664
vn -0.000000 -0.998690 0.051169
vn 0.015812 -0.998690 0.048664
vn 0.030076 -0.998690 0.041396
vn 0.041396 -0.998690 0.030076
vn 0.048664 -0.998690 0.015812
vn 0.051169 -0.998690 0.000000
vn 0.048664 0.998690 -0.015812
vn 0.041396 0.998690 -0.030076
vn 0.000000 1.000000 -0.000000
vn 0.030076 0.998690 -0.041396
vn 0.015812 0.998690 -0.048664
vn -0.000000 0.998690 -0.051169
vn -0.015812 0.998690 -0.048664
vn -0.030076 0.998690 -0.041396
vn -0.041396 0.998690 -0.030076
vn -0.048664 0.998690 -0.015812
vn -0.051169 0.998690 0.000000
vn -0.048664 0.998690 0.015812
vn -0.041396 0.998690 0.030076
vn -0.030076 0.998690 0.041396
vn -0.015812 0.998690 0.048664
vn -0.000000 0.998690 0.051169
vn 0.015812 0.998690 0.048664
vn 0.030076 0.998690 0.041396
vn 0.041396 0.998690 0.030076
vn 0.048664 0.998690 0.015812
vn 0.051169 0.998690 0.000000
vn 0.877052 -0.386744 -0.284971
vn 0.746065 -0.386744 -0.542048
vn 0.360119 -0.925539 -0.117009
vn 0.306335 -0.925539 -0.222565
vn 0.542048 -0.386744 -0.746065
vn 0.222566 -0.925539 -0.306335
vn 0.284971 -0.386744 -0.877052
vn 0.117010 -0.925539 -0.360119
vn 0.000000 -0.386744 -0.922187
vn -0.000000 -0.925539 -0.378652
vn -0.284972 -0.386744 -0.877052
vn -0.117010 -0.925539 -0.360119
vn -0.542049 -0.386744 -0.746065
vn -0.222566 -0.925539 -0.306335
vn -0.746066 -0.386744 -0.542047
vn -0.306335 -0.925540 -0.222565
vn -0.877052 -0.386744 -0.284971
vn -0.360119 -0.925539 -0.117010
vn -0.922187 -0.386744 0.000000
vn -0.378651 -0.925539 -0.000000
vn -0.877052 -0.386744 0.284971
vn -0.360119 -0.925540 0.117009
vn -0.746065 -0.386744 0.542048
vn -0.306335 -0.925539 0.222565
vn -0.542048 -0.386744 0.746065
vn -0.222566 -0.925539 0.306336
vn -0.284971 -0.386744 0.877052
vn -0.117010 -0.925539 0.360119
vn 0.000000 -0.386744 0.922187
vn -0.000000 -0.925539 0.378652
vn 0.284972 -0.386744 0.877052
vn 0.117010 -0.925539 0.360119
vn 0.542048 -0.386744 0.746065
vn 0.222566 -0.925539 0.306336
vn 0.746065 -0.386745 0.542047
vn 0.306336 -0.925539 0.222566
vn 0.877052 -0.386745 0.284971
vn 0.360119 -0.925539 0.117010
vn 0.922187 -0.386744 0.000001
vn 0.378652 -0.925539 0.000000
vn 0.877052 0.386744 -0.284971
vn 0.922187 0.386744 0.000001
vn 0.360119 0.925539 -0.117009
vn 0.378652 0.925539 0.000000
vn 0.306335 0.925539 -0.222565
vn 0.746065 0.386744 -0.542048
vn 0.222566 0.925539 -0.306335
vn 0.542048 0.386744 -0.746065
vn 0.117010 0.925539 -0.360119
vn 0.284971 0.386744 -0.877052
vn -0.000000 0.925539 -0.378652
vn 0.000000 0.386744 -0.922187
vn -0.117010 0.925539 -0.360119
vn -0.284972 0.386744 -0.877052
vn -0.222566 0.925539 -0.306335
vn -0.542049 0.386744 -0.746065
vn -0.306335 0.925540 -0.222565
vn -0.746065 0.386744 -0.542048
vn -0.360119 0.925539 -0.117009
vn -0.877052 0.386744 -0.284971
vn -0.378651 0.925539 0.000000
vn -0.922187 0.386744 0.000000
vn -0.360119 0.925540 0.117009
vn -0.877052 0.386744 0.284971
vn -0.306335 0.925540 0.222565
vn -0.746065 0.386744 0.542048
vn -0.222566 0.925539 0.306335
vn -0.542048 0.386744 0.746065
vn -0.117010 0.925539 0.360119
vn -0.284971 0.386744 0.877052
vn -0.000000 0.925539 0.378652
vn 0.000000 0.386744 0.922187
vn 0.117010 0.925539 0.360119
vn 0.284972 0.386744 0.877052
vn 0.222566 0.925539 0.306336
vn 0.542048 0.386744 0.746065
vn 0.306336 0.925539 0.222566
vn 0.746065 0.386745 0.542048
vn 0.360119 0.925539 0.117010
vn 0.877052 0.386745 0.284971
s 1
g pCylinder1
usemtl lambert2SG
f 3/1/1 6/2/2 66/3/3 63/4/4
f 6/2/2 9/7/5 69/8/6 66/3/3
f 9/139/5 12/140/7 72/141/8 69/142/6
f 12/140/7 15/145/9 75/146/10 72/141/8
f 15/145/9 18/150/11 78/151/12 75/146/10
f 18/150/11 21/154/13 81/155/14 78/151/12
f 21/39/13 24/29/15 84/32/16 81/40/14
f 24/29/15 27/30/17 87/31/18 84/32/16
f 27/30/17 30/35/19 90/36/20 87/31/18
f 30/35/19 33/43/21 93/44/22 90/36/20
f 33/43/21 36/48/23 96/49/24 93/44/22
f 36/48/23 39/52/25 99/53/26 96/49/24
f 39/159/25 42/160/27 102/161/28 99/162/26
f 42/160/27 45/165/29 105/166/30 102/161/28
f 45/165/29 48/170/31 108/171/32 105/166/30
f 48/170/31 51/174/33 111/175/34 108/171/32
f 51/25/33 54/21/35 114/22/36 111/26/34
f 54/21/35 57/17/37 117/18/38 114/22/36
f 57/17/37 60/11/39 120/12/40 117/18/38
f 60/11/39 3/1/1 63/4/4 120/12/40
s 2
f 8/57/41 5/58/42 1/59/43
f 11/63/44 8/57/41 1/59/43
f 14/67/45 11/63/44 1/59/43
f 17/71/46 14/67/45 1/59/43
f 20/75/47 17/71/46 1/59/43
f 23/79/48 20/75/47 1/59/43
f 26/83/49 23/79/48 1/59/43
f 29/87/50 26/83/49 1/59/43
f 32/91/51 29/87/50 1/59/43
f 35/95/52 32/91/51 1/59/43
f 38/94/53 35/95/52 1/59/43
f 41/90/54 38/94/53 1/59/43
f 44/86/55 41/90/54 1/59/43
f 47/82/56 44/86/55 1/59/43
f 50/78/57 47/82/56 1/59/43
f 53/74/58 50/78/57 1/59/43
f 56/70/59 53/74/58 1/59/43
f 59/66/60 56/70/59 1/59/43
f 62/62/61 59/66/60 1/59/43
f 5/58/42 62/62/61 1/59/43
s 3
f 65/98/62 68/99/63 2/100/64
f 68/99/63 71/103/65 2/100/64
f 71/103/65 74/107/66 2/100/64
f 74/107/66 77/111/67 2/100/64
f 77/111/67 80/115/68 2/100/64
f 80/115/68 83/119/69 2/100/64
f 83/119/69 86/123/70 2/100/64
f 86/123/70 89/127/71 2/100/64
f 89/127/71 92/131/72 2/100/64
f 92/131/72 95/135/73 2/100/64
f 95/135/73 98/136/74 2/100/64
f 98/136/74 101/132/75 2/100/64
f 101/132/75 104/128/76 2/100/64
f 104/128/76 107/124/77 2/100/64
f 107/124/77 110/120/78 2/100/64
f 110/120/78 113/116/79 2/100/64
f 113/116/79 116/112/80 2/100/64
f 116/112/80 119/108/81 2/100/64
f 119/108/81 122/104/82 2/100/64
f 122/104/82 65/98/62 2/100/64
s 1
f 3/1/1 4/5/83 7/6/84 6/2/2
s 2
f 4/60/85 5/58/42 8/57/41 7/61/86
s 1
f 6/2/2 7/6/84 10/14/87 9/7/5
s 2
f 7/61/86 8/57/41 11/63/44 10/65/88
s 1
f 9/139/5 10/143/87 13/144/89 12/140/7
s 2
f 10/65/88 11/63/44 14/67/45 13/69/90
s 1
f 12/140/7 13/144/89 16/149/91 15/145/9
s 2
f 13/69/90 14/67/45 17/71/46 16/73/92
s 1
f 15/145/9 16/149/91 19/153/93 18/150/11
s 2
f 16/73/92 17/71/46 20/75/47 19/77/94
s 1
f 18/150/11 19/153/93 22/157/95 21/154/13
s 2
f 19/77/94 20/75/47 23/79/48 22/81/96
s 1
f 21/39/13 22/41/95 25/33/97 24/29/15
s 2
f 22/81/96 23/79/48 26/83/49 25/85/98
s 1
f 24/29/15 25/33/97 28/34/99 27/30/17
s 2
f 25/85/98 26/83/49 29/87/50 28/89/100
s 1
f 27/30/17 28/34/99 31/42/101 30/35/19
s 2
f 28/89/100 29/87/50 32/91/51 31/93/102
s 1
f 30/35/19 31/42/101 34/47/103 33/43/21
s 2
f 31/93/102 32/91/51 35/95/52 34/97/104
s 1
f 33/43/21 34/47/103 37/51/105 36/48/23
s 2
f 34/97/104 35/95/52 38/94/53 37/96/106
s 1
f 36/48/23 37/51/105 40/55/107 39/52/25
s 2
f 37/96/106 38/94/53 41/90/54 40/92/108
s 1
f 39/159/25 40/163/107 43/164/109 42/160/27
s 2
f 40/92/108 41/90/54 44/86/55 43/88/110
s 1
f 42/160/27 43/164/109 46/169/111 45/165/29
s 2
f 43/88/110 44/86/55 47/82/56 46/84/112
s 1
f 45/165/29 46/169/111 49/173/113 48/170/31
s 2
f 46/84/112 47/82/56 50/78/57 49/80/114
s 1
f 48/170/31 49/173/113 52/177/115 51/174/33
s 2
f 49/80/114 50/78/57 53/74/58 52/76/116
s 1
f 51/25/33 52/27/115 55/23/117 54/21/35
s 2
f 52/76/116 53/74/58 56/70/59 55/72/118
s 1
f 54/21/35 55/23/117 58/19/119 57/17/37
s 2
f 55/72/118 56/70/59 59/66/60 58/68/120
s 1
f 57/17/37 58/19/119 61/13/121 60/11/39
s 2
f 58/68/120 59/66/60 62/62/61 61/64/122
f 5/58/42 4/60/85 61/64/122 62/62/61
s 1
f 4/5/83 3/1/1 60/11/39 61/13/121
f 63/4/4 64/9/123 121/16/124 120/12/40
s 3
f 64/101/125 65/98/62 122/104/82 121/105/126
f 65/98/62 64/101/125 67/102/127 68/99/63
s 1
f 64/9/123 63/4/4 66/3/3 67/10/128
s 3
f 68/99/63 67/102/127 70/106/129 71/103/65
s 1
f 67/10/128 66/3/3 69/8/6 70/15/130
s 3
f 71/103/65 70/106/129 73/110/131 74/107/66
s 1
f 70/147/130 69/142/6 72/141/8 73/148/132
s 3
f 74/107/66 73/110/131 76/114/133 77/111/67
s 1
f 73/148/132 72/141/8 75/146/10 76/152/134
s 3
f 77/111/67 76/114/133 79/118/135 80/115/68
s 1
f 76/152/134 75/146/10 78/151/12 79/156/136
s 3
f 80/115/68 79/118/135 82/122/137 83/119/69
s 1
f 79/156/136 78/151/12 81/155/14 82/158/138
s 3
f 83/119/69 82/122/137 85/126/139 86/123/70
s 1
f 82/46/138 81/40/14 84/32/16 85/37/140
s 3
f 86/123/70 85/126/139 88/130/141 89/127/71
s 1
f 85/37/140 84/32/16 87/31/18 88/38/142
s 3
f 89/127/71 88/130/141 91/134/143 92/131/72
s 1
f 88/38/142 87/31/18 90/36/20 91/45/144
s 3
f 92/131/72 91/134/143 94/138/145 95/135/73
s 1
f 91/45/144 90/36/20 93/44/22 94/50/146
s 3
f 95/135/73 94/138/145 97/137/147 98/136/74
s 1
f 94/50/146 93/44/22 96/49/24 97/54/148
s 3
f 98/136/74 97/137/147 100/133/149 101/132/75
s 1
f 97/54/148 96/49/24 99/53/26 100/56/150
s 3
f 101/132/75 100/133/149 103/129/151 104/128/76
s 1
f 100/167/150 99/162/26 102/161/28 103/168/152
s 3
f 104/128/76 103/129/151 106/125/153 107/124/77
s 1
f 103/168/152 102/161/28 105/166/30 106/172/154
s 3
f 107/124/77 106/125/153 109/121/155 110/120/78
s 1
f 106/172/154 105/166/30 108/171/32 109/176/156
s 3
f 110/120/78 109/121/155 112/117/157 113/116/79
s 1
f 109/176/156 108/171/32 111/175/34 112/178/158
s 3
f 113/116/79 112/117/157 115/113/159 116/112/80
s 1
f 112/28/158 111/26/34 114/22/36 115/24/160
s 3
f 116/112/80 115/113/159 118/109/161 119/108/81
s 1
f 115/24/160 114/22/36 117/18/38 118/20/162
s 3
f 119/108/81 118/109/161 121/105/126 122/104/82
s 1
f 118/20/162 117/18/38 120/12/40 121/16/124
