# This file uses centimeters as units for non-parametric coordinates.

mtllib ABlock5Cone.mtl
g default
v 0.000000 2.027885 0.000000
v 42.798061 -25.000000 -13.905938
v 44.625141 -23.729546 -14.499589
v 44.211597 -21.486795 -14.365218
v 36.406208 -25.000000 -26.450657
v 37.960415 -23.729546 -27.579853
v 37.608635 -21.486795 -27.324268
v 26.450657 -25.000000 -36.406204
v 27.579853 -23.729546 -37.960411
v 27.324268 -21.486795 -37.608631
v 13.905932 -25.000000 -42.798058
v 14.499585 -23.729546 -44.625137
v 14.365216 -21.486795 -44.211594
v 0.000001 -25.000000 -45.000538
v 0.000000 -23.729546 -46.921642
v 0.000000 -21.486795 -46.486816
v -13.905931 -25.000000 -42.798058
v -14.499585 -23.729546 -44.625134
v -14.365216 -21.486795 -44.211590
v -26.450649 -25.000000 -36.406200
v -27.579847 -23.729546 -37.960407
v -27.324265 -21.486795 -37.608624
v -36.406193 -25.000000 -26.450649
v -37.960400 -23.729546 -27.579845
v -37.608620 -21.486795 -27.324261
v -42.798046 -25.000000 -13.905929
v -44.625126 -23.729546 -14.499582
v -44.211582 -21.486795 -14.365213
v -45.000526 -25.000000 0.000000
v -46.921631 -23.729546 0.000000
v -46.486805 -21.486795 0.000000
v -42.798046 -25.000000 13.905928
v -44.625126 -23.729546 14.499582
v -44.211582 -21.486795 14.365213
v -36.406193 -25.000000 26.450645
v -37.960400 -23.729546 27.579844
v -37.608616 -21.486795 27.324259
v -26.450645 -25.000000 36.406189
v -27.579844 -23.729546 37.960396
v -27.324259 -21.486795 37.608612
v -13.905928 -25.000000 42.798042
v -14.499582 -23.729546 44.625122
v -14.365213 -21.486795 44.211578
v -0.000002 -25.000000 45.000523
v -0.000002 -23.729546 46.921627
v -0.000001 -21.486795 46.486801
v 13.905922 -25.000000 42.798038
v 14.499577 -23.729546 44.625118
v 14.365209 -21.486795 44.211575
v 26.450640 -25.000000 36.406185
v 27.579838 -23.729546 37.960392
v 27.324253 -21.486795 37.608608
v 36.406185 -25.000000 26.450642
v 37.960392 -23.729546 27.579840
v 37.608608 -21.486795 27.324255
v 42.798035 -25.000000 13.905926
v 44.625114 -23.729546 14.499579
v 44.211571 -21.486795 14.365211
v 45.000515 -25.000000 -0.000005
v 46.921623 -23.729548 -0.000002
v 46.486797 -21.486795 0.000000
vt 0.725002 0.250000
vt 0.290810 0.535133
vt 0.314053 0.535132
vt 0.337296 0.535132
vt 0.360540 0.535133
vt 0.383783 0.535132
vt 0.407027 0.535133
vt 0.430270 0.535133
vt 0.453513 0.535132
vt 0.476757 0.535131
vt 0.500000 0.535131
vt 0.523243 0.535131
vt 0.546487 0.535131
vt 0.569730 0.535132
vt 0.592973 0.535133
vt 0.616217 0.535133
vt 0.639460 0.535132
vt 0.662704 0.535132
vt 0.685947 0.535132
vt 0.709191 0.535132
vt 0.732434 0.535132
vt 0.500000 1.000000
vt 0.267566 0.535133
vt 0.713990 0.180470
vt 0.682031 0.117747
vt 0.632253 0.067969
vt 0.569529 0.036010
vt 0.500000 0.024997
vt 0.430471 0.036010
vt 0.367747 0.067969
vt 0.317970 0.117747
vt 0.286011 0.180470
vt 0.274999 0.249999
vt 0.286008 0.319530
vt 0.317969 0.382253
vt 0.367747 0.432031
vt 0.430471 0.463989
vt 0.500001 0.475002
vt 0.569530 0.463988
vt 0.632253 0.432030
vt 0.682031 0.382252
vt 0.713990 0.319530
vt 0.737764 0.172746
vt 0.250000 0.500000
vt 0.750000 0.500000
vt 0.702254 0.103054
vt 0.275000 0.500000
vt 0.646946 0.047746
vt 0.300000 0.500000
vt 0.577254 0.012236
vt 0.325000 0.500000
vt 0.500000 -0.000000
vt 0.350000 0.500000
vt 0.422746 0.012236
vt 0.375000 0.500000
vt 0.353054 0.047746
vt 0.400000 0.500000
vt 0.297746 0.103054
vt 0.425000 0.500000
vt 0.262236 0.172746
vt 0.450000 0.500000
vt 0.250000 0.250000
vt 0.475000 0.500000
vt 0.262236 0.327254
vt 0.500000 0.500000
vt 0.297746 0.396946
vt 0.525000 0.500000
vt 0.353054 0.452254
vt 0.550000 0.500000
vt 0.422746 0.487764
vt 0.575000 0.500000
vt 0.500000 0.500000
vt 0.600000 0.500000
vt 0.577254 0.487764
vt 0.625000 0.500000
vt 0.646946 0.452254
vt 0.650000 0.500000
vt 0.702254 0.396946
vt 0.675000 0.500000
vt 0.737764 0.327254
vt 0.700000 0.500000
vt 0.725000 0.500000
vt 0.750000 0.250000
vn 0.000000 -1.000000 0.000000
vn 0.000000 -1.000000 0.000000
vn 0.000000 -1.000000 0.000000
vn 0.000000 -1.000000 0.000000
vn 0.000000 -1.000000 0.000000
vn 0.000000 -1.000000 0.000000
vn 0.000000 -1.000000 0.000000
vn 0.000000 -1.000000 0.000000
vn 0.000000 -1.000000 0.000000
vn 0.000000 -1.000000 0.000000
vn 0.000000 -1.000000 0.000000
vn 0.000000 -1.000000 0.000000
vn 0.000000 -1.000000 0.000000
vn 0.000000 -1.000000 0.000000
vn 0.000000 -1.000000 0.000000
vn 0.000000 -1.000000 0.000000
vn 0.000000 -1.000000 0.000000
vn 0.000000 -1.000000 0.000000
vn 0.000000 -1.000000 0.000000
vn 0.000000 -1.000000 0.000000
vn 0.429283 0.892335 -0.139482
vn 0.365170 0.892335 -0.265311
vn 0.000000 1.000000 0.000000
vn 0.265311 0.892335 -0.365170
vn 0.139482 0.892335 -0.429283
vn 0.000000 0.892335 -0.451375
vn -0.139482 0.892335 -0.429283
vn -0.265311 0.892335 -0.365170
vn -0.365170 0.892335 -0.265311
vn -0.429283 0.892335 -0.139482
vn -0.451375 0.892335 0.000000
vn -0.429283 0.892335 0.139482
vn -0.365170 0.892335 0.265311
vn -0.265311 0.892335 0.365170
vn -0.139482 0.892335 0.429283
vn 0.000000 0.892335 0.451375
vn 0.139483 0.892335 0.429283
vn 0.265311 0.892335 0.365170
vn 0.365170 0.892335 0.265311
vn 0.429283 0.892335 0.139482
vn 0.451375 0.892335 0.000000
vn 0.524607 -0.834106 -0.170455
vn 0.524607 -0.834106 -0.170455
vn 0.551604 -0.834106 0.000001
vn 0.551604 -0.834106 0.000001
vn 0.933671 0.190336 -0.303367
vn 0.933671 0.190336 -0.303367
vn 0.981719 0.190338 0.000001
vn 0.981719 0.190338 0.000001
vn 0.794228 0.190335 -0.577040
vn 0.794228 0.190335 -0.577040
vn 0.446258 -0.834105 -0.324226
vn 0.446258 -0.834105 -0.324226
vn 0.577040 0.190335 -0.794228
vn 0.577039 0.190335 -0.794228
vn 0.324226 -0.834105 -0.446258
vn 0.324226 -0.834105 -0.446259
vn 0.303367 0.190336 -0.933670
vn 0.303367 0.190336 -0.933670
vn 0.170456 -0.834105 -0.524608
vn 0.170455 -0.834105 -0.524608
vn -0.000000 0.190336 -0.981719
vn -0.000000 0.190336 -0.981719
vn -0.000000 -0.834105 -0.551606
vn -0.000000 -0.834105 -0.551606
vn -0.303368 0.190336 -0.933670
vn -0.303368 0.190336 -0.933670
vn -0.170456 -0.834104 -0.524609
vn -0.170456 -0.834104 -0.524609
vn -0.577040 0.190336 -0.794227
vn -0.577040 0.190336 -0.794227
vn -0.324226 -0.834105 -0.446259
vn -0.324226 -0.834105 -0.446259
vn -0.794228 0.190335 -0.577040
vn -0.794228 0.190335 -0.577040
vn -0.446259 -0.834105 -0.324226
vn -0.446259 -0.834105 -0.324226
vn -0.933671 0.190334 -0.303368
vn -0.933671 0.190334 -0.303367
vn -0.524608 -0.834105 -0.170455
vn -0.524608 -0.834105 -0.170455
vn -0.981719 0.190334 0.000000
vn -0.981719 0.190334 0.000000
vn -0.551606 -0.834105 -0.000000
vn -0.551606 -0.834105 -0.000000
vn -0.933671 0.190335 0.303368
vn -0.933670 0.190335 0.303368
vn -0.524608 -0.834105 0.170456
vn -0.524608 -0.834105 0.170456
vn -0.794227 0.190336 0.577040
vn -0.794227 0.190336 0.577040
vn -0.446258 -0.834105 0.324226
vn -0.446258 -0.834105 0.324226
vn -0.577040 0.190336 0.794227
vn -0.577040 0.190336 0.794227
vn -0.324226 -0.834105 0.446259
vn -0.324226 -0.834105 0.446259
vn -0.303368 0.190337 0.933670
vn -0.303368 0.190337 0.933670
vn -0.170455 -0.834105 0.524608
vn -0.170455 -0.834105 0.524608
vn 0.000000 0.190336 0.981719
vn 0.000000 0.190336 0.981719
vn 0.000000 -0.834105 0.551606
vn 0.000000 -0.834105 0.551606
vn 0.303368 0.190336 0.933670
vn 0.303368 0.190336 0.933670
vn 0.170455 -0.834105 0.524608
vn 0.170455 -0.834105 0.524608
vn 0.577040 0.190337 0.794227
vn 0.577040 0.190337 0.794227
vn 0.324225 -0.834105 0.446259
vn 0.324225 -0.834105 0.446259
vn 0.794227 0.190338 0.577040
vn 0.794227 0.190338 0.577040
vn 0.446258 -0.834105 0.324226
vn 0.446258 -0.834105 0.324226
vn 0.933670 0.190338 0.303367
vn 0.933670 0.190338 0.303367
vn 0.524608 -0.834105 0.170455
vn 0.524608 -0.834105 0.170455
s off
g pCone1
usemtl initialShadingGroup
f 2/24/1 59/1/2 56/42/3 53/41/4 50/40/5 47/39/6 44/38/7 41/37/8 38/36/9 35/35/10 32/34/11 29/33/12 26/32/13 23/31/14 20/30/15 17/29/16 14/28/17 11/27/18 8/26/19 5/25/20
s 1
f 4/23/21 7/2/22 1/22/23
f 7/2/22 10/3/24 1/22/23
f 10/3/24 13/4/25 1/22/23
f 13/4/25 16/5/26 1/22/23
f 16/5/26 19/6/27 1/22/23
f 19/6/27 22/7/28 1/22/23
f 22/7/28 25/8/29 1/22/23
f 25/8/29 28/9/30 1/22/23
f 28/9/30 31/10/31 1/22/23
f 31/10/31 34/11/32 1/22/23
f 34/11/32 37/12/33 1/22/23
f 37/12/33 40/13/34 1/22/23
f 40/13/34 43/14/35 1/22/23
f 43/14/35 46/15/36 1/22/23
f 46/15/36 49/16/37 1/22/23
f 49/16/37 52/17/38 1/22/23
f 52/17/38 55/18/39 1/22/23
f 55/18/39 58/19/40 1/22/23
f 58/19/40 61/20/41 1/22/23
f 61/20/41 4/21/21 1/22/23
s 2
f 2/24/42 3/43/43 60/83/44 59/1/45
s 3
f 3/45/46 4/21/47 61/20/48 60/82/49
f 4/23/47 3/44/46 6/47/50 7/2/51
s 2
f 3/43/43 2/24/42 5/25/52 6/46/53
s 3
f 7/2/51 6/47/50 9/49/54 10/3/55
s 2
f 6/46/53 5/25/52 8/26/56 9/48/57
s 3
f 10/3/55 9/49/54 12/51/58 13/4/59
s 2
f 9/48/57 8/26/56 11/27/60 12/50/61
s 3
f 13/4/59 12/51/58 15/53/62 16/5/63
s 2
f 12/50/61 11/27/60 14/28/64 15/52/65
s 3
f 16/5/63 15/53/62 18/55/66 19/6/67
s 2
f 15/52/65 14/28/64 17/29/68 18/54/69
s 3
f 19/6/67 18/55/66 21/57/70 22/7/71
s 2
f 18/54/69 17/29/68 20/30/72 21/56/73
s 3
f 22/7/71 21/57/70 24/59/74 25/8/75
s 2
f 21/56/73 20/30/72 23/31/76 24/58/77
s 3
f 25/8/75 24/59/74 27/61/78 28/9/79
s 2
f 24/58/77 23/31/76 26/32/80 27/60/81
s 3
f 28/9/79 27/61/78 30/63/82 31/10/83
s 2
f 27/60/81 26/32/80 29/33/84 30/62/85
s 3
f 31/10/83 30/63/82 33/65/86 34/11/87
s 2
f 30/62/85 29/33/84 32/34/88 33/64/89
s 3
f 34/11/87 33/65/86 36/67/90 37/12/91
s 2
f 33/64/89 32/34/88 35/35/92 36/66/93
s 3
f 37/12/91 36/67/90 39/69/94 40/13/95
s 2
f 36/66/93 35/35/92 38/36/96 39/68/97
s 3
f 40/13/95 39/69/94 42/71/98 43/14/99
s 2
f 39/68/97 38/36/96 41/37/100 42/70/101
s 3
f 43/14/99 42/71/98 45/73/102 46/15/103
s 2
f 42/70/101 41/37/100 44/38/104 45/72/105
s 3
f 46/15/103 45/73/102 48/75/106 49/16/107
s 2
f 45/72/105 44/38/104 47/39/108 48/74/109
s 3
f 49/16/107 48/75/106 51/77/110 52/17/111
s 2
f 48/74/109 47/39/108 50/40/112 51/76/113
s 3
f 52/17/111 51/77/110 54/79/114 55/18/115
s 2
f 51/76/113 50/40/112 53/41/116 54/78/117
s 3
f 55/18/115 54/79/114 57/81/118 58/19/119
s 2
f 54/78/117 53/41/116 56/42/120 57/80/121
s 3
f 58/19/119 57/81/118 60/82/49 61/20/48
s 2
f 57/80/121 56/42/120 59/1/45 60/83/44
